<mxfile host="app.diagrams.net" modified="2023-11-20T14:08:29.926Z" agent="Mozilla/5.0 (Windows NT 10.0; Win64; x64) AppleWebKit/537.36 (KHTML, like Gecko) Chrome/119.0.0.0 Safari/537.36" version="22.1.2" etag="R7P7OZww4hI1ZGFfo-d8" type="github">
  <diagram name="Page-1" id="Stq7qKC4cfmi2X1aZUif">
    <mxGraphModel>
      <root>
        <mxCell id="0" />
        <mxCell id="1" parent="0" />
      </root>
    </mxGraphModel>
  </diagram>
</mxfile>
